<svg xmlns="http://www.w3.org/2000/svg" xmlns:xlink="http://www.w3.org/1999/xlink" version="1.1" x="0px" y="0px" viewBox="0 0 100 125" enable-background="new 0 0 100 100" xml:space="preserve"><path d="M73.9,51.7v-4.1c0-1.9-1.5-3.4-3.4-3.4H29c-1.9,0-3.4,1.5-3.4,3.4v4.1c0,1.9,1.5,3.4,3.4,3.4h41.4  C72.4,55.2,73.9,53.6,73.9,51.7z M27.1,51.7v-4.1c0-1.1,0.9-1.9,1.9-1.9h41.4c1.1,0,1.9,0.9,1.9,1.9v4.1c0,1.1-0.9,1.9-1.9,1.9H29  C28,53.7,27.1,52.8,27.1,51.7z M52,43.1h22.5c1.2,0,2.2-1,2.2-2.2v-2.2c0-1.2-1-2.2-2.2-2.2H52c-1.2,0-2.2,1-2.2,2.2v2.2  C49.8,42.1,50.8,43.1,52,43.1z M51.3,38.7c0-0.4,0.3-0.7,0.7-0.7h22.5c0.4,0,0.7,0.3,0.7,0.7v2.2c0,0.4-0.3,0.7-0.7,0.7H52  c-0.4,0-0.7-0.3-0.7-0.7V38.7z M21.6,37.5h14.2c1.2,0,2.2-1,2.2-2.2v-2.2c0-1.2-1-2.2-2.2-2.2H21.6c-1.2,0-2.2,1-2.2,2.2v2.2  C19.4,36.5,20.4,37.5,21.6,37.5z M20.9,33.1c0-0.4,0.3-0.7,0.7-0.7h14.2c0.4,0,0.7,0.3,0.7,0.7v2.2c0,0.4-0.3,0.7-0.7,0.7H21.6  c-0.4,0-0.7-0.3-0.7-0.7V33.1z M45.2,56.3H22.8c-1.2,0-2.2,1-2.2,2.2v2.2c0,1.2,1,2.2,2.2,2.2h22.5c1.2,0,2.2-1,2.2-2.2v-2.2  C47.4,57.3,46.5,56.3,45.2,56.3z M45.9,60.7c0,0.4-0.3,0.7-0.7,0.7H22.8c-0.4,0-0.7-0.3-0.7-0.7v-2.2c0-0.4,0.3-0.7,0.7-0.7h22.5  c0.4,0,0.7,0.3,0.7,0.7V60.7z M80.4,62.5H62.7c-1.2,0-2.2,1-2.2,2.2v2.2c0,1.2,1,2.2,2.2,2.2h17.7c1.2,0,2.2-1,2.2-2.2v-2.2  C82.6,63.5,81.6,62.5,80.4,62.5z M81.1,66.9c0,0.4-0.3,0.7-0.7,0.7H62.7c-0.4,0-0.7-0.3-0.7-0.7v-2.2c0-0.4,0.3-0.7,0.7-0.7h17.7  c0.4,0,0.7,0.3,0.7,0.7V66.9z M47.4,42.9c0.8,0,1.4-0.6,1.4-1.4v-1.3c0-0.8-0.6-1.4-1.4-1.4H34.1c-0.8,0-1.4,0.6-1.4,1.4v1.3  c0,0.8,0.6,1.4,1.4,1.4H47.4z M33.7,41.5v-1.3c0-0.2,0.2-0.4,0.4-0.4h13.3c0.2,0,0.4,0.2,0.4,0.4v1.3c0,0.2-0.2,0.4-0.4,0.4H34.1  C33.9,41.9,33.7,41.7,33.7,41.5z M40,37.3h7.4c0.8,0,1.4-0.6,1.4-1.4v-1.3c0-0.8-0.6-1.4-1.4-1.4H40c-0.8,0-1.4,0.6-1.4,1.4v1.3  C38.6,36.7,39.2,37.3,40,37.3z M39.6,34.6c0-0.2,0.2-0.4,0.4-0.4h7.4c0.2,0,0.4,0.2,0.4,0.4v1.3c0,0.2-0.2,0.4-0.4,0.4H40  c-0.2,0-0.4-0.2-0.4-0.4V34.6z M77.7,40.2v1.3c0,0.8,0.6,1.4,1.4,1.4h7.4c0.8,0,1.4-0.6,1.4-1.4v-1.3c0-0.8-0.6-1.4-1.4-1.4H79  C78.3,38.8,77.7,39.4,77.7,40.2z M86.8,40.2v1.3c0,0.2-0.2,0.4-0.4,0.4H79c-0.2,0-0.4-0.2-0.4-0.4v-1.3c0-0.2,0.2-0.4,0.4-0.4h7.4  C86.7,39.8,86.8,40,86.8,40.2z M51.7,35.6h7.4c0.8,0,1.4-0.6,1.4-1.4v-1.3c0-0.8-0.6-1.4-1.4-1.4h-7.4c-0.8,0-1.4,0.6-1.4,1.4v1.3  C50.3,34.9,51,35.6,51.7,35.6z M51.3,32.9c0-0.2,0.2-0.4,0.4-0.4h7.4c0.2,0,0.4,0.2,0.4,0.4v1.3c0,0.2-0.2,0.4-0.4,0.4h-7.4  c-0.2,0-0.4-0.2-0.4-0.4V32.9z M57.7,62.7h-7.4c-0.8,0-1.4,0.6-1.4,1.4v1.3c0,0.8,0.6,1.4,1.4,1.4h7.4c0.8,0,1.4-0.6,1.4-1.4v-1.3  C59.1,63.3,58.5,62.7,57.7,62.7z M58.1,65.4c0,0.2-0.2,0.4-0.4,0.4h-7.4c-0.2,0-0.4-0.2-0.4-0.4v-1.3c0-0.2,0.2-0.4,0.4-0.4h7.4  c0.2,0,0.4,0.2,0.4,0.4V65.4z M76.3,44.5c-0.8,0-1.4,0.6-1.4,1.4v1.3c0,0.8,0.6,1.4,1.4,1.4h7.4c0.8,0,1.4-0.6,1.4-1.4v-1.3  c0-0.8-0.6-1.4-1.4-1.4H76.3z M84,45.8v1.3c0,0.2-0.2,0.4-0.4,0.4h-7.4c-0.2,0-0.4-0.2-0.4-0.4v-1.3c0-0.2,0.2-0.4,0.4-0.4h7.4  C83.9,45.5,84,45.6,84,45.8z M17.5,42.9h12.1c0.8,0,1.4-0.6,1.4-1.4v-1.3c0-0.8-0.6-1.4-1.4-1.4H17.5c-0.8,0-1.4,0.6-1.4,1.4v1.3  C16.1,42.3,16.7,42.9,17.5,42.9z M17.1,40.2c0-0.2,0.2-0.4,0.4-0.4h12.1c0.2,0,0.4,0.2,0.4,0.4v1.3c0,0.2-0.2,0.4-0.4,0.4H17.5  c-0.2,0-0.4-0.2-0.4-0.4V40.2z M50.4,56.6c-0.8,0-1.4,0.6-1.4,1.4v1.3c0,0.8,0.6,1.4,1.4,1.4h14.5c0.8,0,1.4-0.6,1.4-1.4v-1.3  c0-0.8-0.6-1.4-1.4-1.4H50.4z M65.3,57.9v1.3c0,0.2-0.2,0.4-0.4,0.4H50.4c-0.2,0-0.4-0.2-0.4-0.4v-1.3c0-0.2,0.2-0.4,0.4-0.4h14.5  C65.1,57.6,65.3,57.7,65.3,57.9z M90.8,50.5H76.3c-0.8,0-1.4,0.6-1.4,1.4v1.3c0,0.8,0.6,1.4,1.4,1.4h14.5c0.8,0,1.4-0.6,1.4-1.4  v-1.3C92.1,51.1,91.5,50.5,90.8,50.5z M91.1,53.2c0,0.2-0.2,0.4-0.4,0.4H76.3c-0.2,0-0.4-0.2-0.4-0.4v-1.3c0-0.2,0.2-0.4,0.4-0.4  h14.5c0.2,0,0.4,0.2,0.4,0.4V53.2z M23.9,53.6v-2c0-0.8-0.6-1.4-1.4-1.4H9.2c-0.8,0-1.4,0.6-1.4,1.4v2c0,0.8,0.6,1.4,1.4,1.4h13.3  C23.3,54.9,23.9,54.3,23.9,53.6z M8.9,53.6v-2c0-0.2,0.2-0.4,0.4-0.4h13.3c0.2,0,0.4,0.2,0.4,0.4v2c0,0.2-0.2,0.4-0.4,0.4H9.2  C9,53.9,8.9,53.8,8.9,53.6z M45.8,63.9H32.5c-0.8,0-1.4,0.6-1.4,1.4v2c0,0.8,0.6,1.4,1.4,1.4h13.3c0.8,0,1.4-0.6,1.4-1.4v-2  C47.1,64.5,46.5,63.9,45.8,63.9z M46.1,67.3c0,0.2-0.2,0.4-0.4,0.4H32.5c-0.2,0-0.4-0.2-0.4-0.4v-2c0-0.2,0.2-0.4,0.4-0.4h13.3  c0.2,0,0.4,0.2,0.4,0.4V67.3z M64.1,36.2h13.3c0.9,0,1.6-0.7,1.6-1.6v-2c0-0.9-0.7-1.6-1.6-1.6H64.1c-0.9,0-1.6,0.7-1.6,1.6v2  C62.5,35.4,63.2,36.2,64.1,36.2z M64,32.5c0-0.1,0-0.1,0.1-0.1h13.3c0.1,0,0.1,0,0.1,0.1v2c0,0.1,0,0.1-0.1,0.1H64.1  c-0.1,0-0.1-0.1-0.1-0.1V32.5z M83.4,56.2H70c-0.8,0-1.4,0.6-1.4,1.4v2c0,0.8,0.6,1.4,1.4,1.4h13.3c0.8,0,1.4-0.6,1.4-1.4v-2  C84.7,56.8,84.1,56.2,83.4,56.2z M83.7,59.6c0,0.2-0.2,0.4-0.4,0.4H70c-0.2,0-0.4-0.2-0.4-0.4v-2c0-0.2,0.2-0.4,0.4-0.4h13.3  c0.2,0,0.4,0.2,0.4,0.4V59.6z M15.1,48.5h7.4c0.8,0,1.4-0.6,1.4-1.4v-1.3c0-0.8-0.6-1.4-1.4-1.4h-7.4c-0.8,0-1.4,0.6-1.4,1.4v1.3  C13.8,47.9,14.4,48.5,15.1,48.5z M14.8,45.8c0-0.2,0.2-0.4,0.4-0.4h7.4c0.2,0,0.4,0.2,0.4,0.4v1.3c0,0.2-0.2,0.4-0.4,0.4h-7.4  c-0.2,0-0.4-0.2-0.4-0.4V45.8z"/><text x="0" y="115" fill="#000000" font-size="5px" font-weight="bold" font-family="'Helvetica Neue', Helvetica, Arial-Unicode, Arial, Sans-serif">Created by Meaghan Hendricks</text><text x="0" y="120" fill="#000000" font-size="5px" font-weight="bold" font-family="'Helvetica Neue', Helvetica, Arial-Unicode, Arial, Sans-serif">from the Noun Project</text></svg>